<?xml version="1.0" encoding="UTF-8" standalone="no"?>
<!-- Created with Inkscape (http://www.inkscape.org/) -->

<svg
   version="1.1"
   id="svg1"
   width="1489.4545"
   height="1489.4545"
   viewBox="0 0 1489.4545 1489.4545"
   sodipodi:docname="Untitled_Artwork 14.png"
   xmlns:inkscape="http://www.inkscape.org/namespaces/inkscape"
   xmlns:sodipodi="http://sodipodi.sourceforge.net/DTD/sodipodi-0.dtd"
   xmlns="http://www.w3.org/2000/svg"
   xmlns:svg="http://www.w3.org/2000/svg">
  <defs
     id="defs1" />
  <sodipodi:namedview
     id="namedview1"
     pagecolor="#505050"
     bordercolor="#eeeeee"
     borderopacity="1"
     inkscape:showpageshadow="0"
     inkscape:pageopacity="0"
     inkscape:pagecheckerboard="0"
     inkscape:deskcolor="#505050">
    <inkscape:page
       x="0"
       y="0"
       width="1489.4545"
       height="1489.4545"
       id="page2"
       margin="0"
       bleed="0" />
  </sodipodi:namedview>
  <g
     inkscape:groupmode="layer"
     inkscape:label="Image"
     id="g1">
    <path
       style="fill:#000000"
       d="m 250.18181,1185.7169 c -0.6,-0.216 -2.12219,-0.8544 -3.38264,-1.4185 -1.26046,-0.5642 -2.78848,-1.0257 -3.39561,-1.0257 -1.35265,0 -5.57445,-2.3383 -5.58079,-3.0909 -0.003,-0.3 -0.6021,-0.5455 -1.33237,-0.5455 -0.73028,0 -2.09642,-0.8182 -3.03587,-1.8182 -0.93945,-1 -2.01693,-1.8182 -2.3944,-1.8182 -0.37746,0 -1.80453,-0.9818 -3.17126,-2.1818 -1.36672,-1.2 -2.96447,-2.1818 -3.55055,-2.1818 -0.58608,0 -1.0656,-0.5975 -1.0656,-1.3278 0,-0.7302 -0.82664,-2.1043 -1.83696,-3.0535 -1.01033,-0.9491 -2.27478,-2.5607 -2.80989,-3.5813 -2.5864,-4.9328 -3.32216,-6.1142 -4.11188,-6.6023 -0.46982,-0.2904 -1.02562,-2.0486 -1.23512,-3.9073 -0.2095,-1.8587 -0.66477,-3.5548 -1.01171,-3.7692 -0.34694,-0.2145 -0.63081,-0.9851 -0.63081,-1.7125 0,-0.7274 -0.49091,-1.73 -1.09091,-2.2279 -0.96475,-0.8007 -1.09091,-23.5557 -1.09091,-196.77341 0,-116.96513 0.26677,-196.03288 0.66222,-196.27728 0.36421,-0.2251 0.8756,-3.27169 1.13642,-6.7702 0.26081,-3.49851 0.75955,-7.01547 1.10831,-7.81547 0.34876,-0.8 0.76968,-6.47736 0.93538,-12.61635 0.20623,-7.64056 0.57798,-11.33283 1.17839,-11.7039 0.5354,-0.3309 1.02502,-3.20744 1.25678,-7.38364 0.20882,-3.76286 0.64146,-7.4961 0.96143,-8.2961 0.78826,-1.97084 2.21562,-9.81925 2.21562,-12.18268 0,-1.05231 0.28176,-2.08744 0.62613,-2.30027 0.34437,-0.21283 0.8009,-2.56431 1.01452,-5.22551 0.21362,-2.66121 0.79108,-5.08743 1.28325,-5.39161 0.51401,-0.31767 1.05412,-2.83228 1.26906,-5.90831 0.2058,-2.94539 0.58978,-5.5189 0.85329,-5.7189 0.83066,-0.63046 2.22648,-6.24171 2.22648,-8.95054 0,-1.42999 0.32727,-2.80224 0.72727,-3.04945 0.4,-0.24722 0.72929,-1.0029 0.73175,-1.67929 0.002,-0.67639 0.49643,-2.17311 1.0977,-3.32603 0.60128,-1.15292 1.30562,-3.42448 1.56522,-5.04791 0.25959,-1.62343 0.90907,-3.78922 1.44327,-4.81287 0.5342,-1.02364 0.9733,-2.41459 0.97576,-3.09098 0.002,-0.6764 0.33175,-1.43207 0.73175,-1.67929 0.4,-0.24721 0.72728,-1.59143 0.72728,-2.98714 0,-1.39572 0.65454,-3.89242 1.45454,-5.54823 0.8,-1.65581 1.45455,-3.6903 1.45455,-4.52109 0,-0.83079 0.65454,-2.73177 1.45454,-4.2244 0.8,-1.49262 1.45455,-3.35003 1.45455,-4.12756 0,-0.77753 0.98182,-3.30606 2.18182,-5.61895 1.2,-2.31288 2.18181,-4.95182 2.18181,-5.8643 0,-0.91248 0.65455,-2.88029 1.45455,-4.37292 0.8,-1.49262 1.45454,-3.34237 1.45454,-4.11053 0,-0.76817 0.79309,-2.43645 1.76241,-3.7073 0.96932,-1.27085 1.98537,-3.49917 2.25789,-4.95183 0.27252,-1.45266 0.94351,-3.01301 1.49108,-3.46746 0.54757,-0.45444 1.2085,-2.02065 1.46872,-3.48045 0.26022,-1.45981 1.2507,-3.696 2.20106,-4.96931 0.95037,-1.27331 1.72793,-2.71446 1.72793,-3.20255 0,-0.89458 3.11035,-8.09465 4.37116,-10.1187 0.37375,-0.6 1.20673,-2.23636 1.85108,-3.63636 0.64435,-1.4 1.47395,-3.03637 1.84357,-3.63637 0.36961,-0.6 1.02574,-1.90909 1.45807,-2.90909 0.43232,-1 1.22707,-2.63636 1.76611,-3.63636 0.53903,-1 2.34457,-4.51818 4.01229,-7.81818 1.66772,-3.3 3.29914,-6 3.62537,-6 0.32623,0 0.80879,-0.98182 1.07235,-2.18182 0.26357,-1.2 0.74231,-2.18182 1.06388,-2.18182 0.32156,0 0.7918,-0.57273 1.04497,-1.27273 0.25318,-0.7 1.4373,-2.90909 2.63139,-4.90909 1.19409,-2 2.46029,-4.29091 2.81377,-5.09091 0.35349,-0.8 1.31096,-2.05641 2.12773,-2.79204 0.81676,-0.73562 1.70127,-2.61744 1.96557,-4.18182 0.2643,-1.56437 0.88114,-2.84432 1.37076,-2.84432 0.90771,0 4.07284,-3.81347 4.07284,-4.90711 0,-0.33131 0.96852,-1.73547 2.15226,-3.12036 1.18375,-1.38489 2.16556,-2.85762 2.18182,-3.27273 0.0163,-0.41511 0.99808,-1.88783 2.18182,-3.27272 1.18374,-1.38489 2.16556,-2.91081 2.18182,-3.39094 0.0162,-0.48012 0.47764,-1.13467 1.02531,-1.45454 0.54767,-0.31988 2.07733,-2.50894 3.39925,-4.86459 1.32192,-2.35564 3.0011,-4.43927 3.73152,-4.63027 0.73041,-0.19101 1.32802,-0.74931 1.32802,-1.24066 0,-0.49135 0.63331,-1.46651 1.40737,-2.16702 0.77405,-0.7005 2.0542,-2.63305 2.84479,-4.29453 0.79058,-1.66149 2.77544,-4.31458 4.41081,-5.89576 1.63537,-1.58118 2.97339,-3.1731 2.97339,-3.53761 0,-0.3645 1.63637,-2.55162 3.63637,-4.86025 2,-2.30862 3.63636,-4.44169 3.63636,-4.74015 0,-0.29845 1.14545,-1.62294 2.54545,-2.94331 1.4,-1.32037 2.54546,-2.68573 2.54546,-3.03412 0,-0.3484 1.14545,-1.74366 2.54545,-3.1006 1.4,-1.35693 2.54546,-2.8718 2.54546,-3.36638 0,-0.49458 0.65454,-1.10698 1.45454,-1.36089 0.8,-0.25391 1.45455,-0.71774 1.45455,-1.03074 0,-0.313 2.45454,-3.04763 5.45454,-6.07696 3,-3.02933 5.45455,-5.86028 5.45455,-6.291 0,-0.43071 0.49901,-0.78312 1.10891,-0.78312 0.6099,0 1.42317,-0.82656 1.80726,-1.83681 0.3841,-1.01026 1.276,-2.04422 1.982,-2.2977 1.61133,-0.57852 5.23385,-3.98471 5.27119,-4.95639 0.035,-0.91099 4.66117,-5.45455 5.55371,-5.45455 0.36261,0 0.98235,-0.73055 1.3772,-1.62345 0.39485,-0.8929 1.51859,-2.01878 2.49721,-2.50197 0.97862,-0.48318 3.61602,-2.80268 5.8609,-5.15445 2.24488,-2.35176 4.6351,-4.48834 5.31161,-4.74794 0.6765,-0.25959 1.23001,-0.97317 1.23001,-1.58573 0,-0.61255 0.42671,-1.11373 0.94824,-1.11373 0.52153,0 2.05846,-1.14546 3.41539,-2.54546 1.35694,-1.4 2.72161,-2.54545 3.03262,-2.54545 0.31101,0 2.0382,-1.47273 3.8382,-3.27273 1.8,-1.8 3.48137,-3.27272 3.73638,-3.27272 0.25502,0 1.98181,-1.25412 3.83732,-2.78692 1.85552,-1.53281 3.97746,-3.00719 4.71544,-3.2764 0.73797,-0.26921 1.51251,-1.14237 1.72118,-1.94036 0.20868,-0.79798 0.71067,-1.45087 1.11554,-1.45087 0.40486,0 2.004,-1.14545 3.55363,-2.54545 1.54964,-1.4 3.24215,-2.54546 3.76116,-2.54546 0.519,0 2.72714,-1.57762 4.90699,-3.50583 2.17985,-1.9282 4.53609,-3.71793 5.23609,-3.97717 0.7,-0.25924 1.27272,-0.80889 1.27272,-1.22145 0,-0.41255 0.44019,-0.75009 0.97819,-0.75009 0.53801,0 1.57055,-0.65455 2.29454,-1.45455 0.72399,-0.8 1.78237,-1.45454 2.35196,-1.45454 0.56959,0 2.91698,-1.63637 5.21643,-3.63637 2.29945,-2 4.6711,-3.63636 5.27035,-3.63636 0.59924,0 1.83216,-0.79049 2.73982,-1.75665 0.90765,-0.96616 2.43743,-1.95421 3.3995,-2.19567 0.96206,-0.24147 1.74921,-0.88869 1.74921,-1.43827 0,-1.04601 1.51844,-1.88214 3.41802,-1.88214 0.61448,0 2.23546,-0.98182 3.60219,-2.18182 1.36672,-1.2 2.96447,-2.18181 3.55055,-2.18181 0.58608,0 1.0656,-0.45 1.0656,-1 0,-0.55 0.97013,-1.19403 2.15585,-1.43117 1.18571,-0.23715 3.52573,-1.42351 5.20003,-2.63637 1.6743,-1.21285 3.44591,-2.20519 3.93692,-2.20519 0.49101,0 1.30016,-0.49091 1.79811,-1.09091 0.49796,-0.6 1.46913,-1.09091 2.15815,-1.09091 0.68903,0 1.84514,-0.65454 2.56913,-1.45454 0.72399,-0.8 1.80745,-1.45455 2.4077,-1.45455 0.60025,0 2.17083,-0.82335 3.49019,-1.82967 1.31935,-1.00632 3.39569,-2.02905 4.6141,-2.27273 1.2184,-0.24368 2.21528,-0.70022 2.21528,-1.01454 0,-0.31432 1.55454,-1.30564 3.45454,-2.20295 1.9,-0.8973 3.94546,-2.03049 4.54546,-2.51821 0.6,-0.48772 2.31818,-1.10667 3.81818,-1.37546 1.55557,-0.27875 2.72727,-0.90846 2.72727,-1.46573 0,-0.54927 1.16768,-1.19607 2.66711,-1.47737 1.46691,-0.27519 3.70689,-1.29343 4.97774,-2.26275 1.27084,-0.96933 3.1356,-1.76241 4.1439,-1.76241 1.0083,0 2.66539,-0.65454 3.68243,-1.45454 1.01703,-0.8 2.21107,-1.45455 2.6534,-1.45455 0.44234,0 1.37253,-0.28909 2.06711,-0.64242 1.18484,-0.60273 2.33663,-1.08976 7.26286,-3.07106 1.74212,-0.70067 6.21358,-2.68823 9.63636,-4.28335 0.6,-0.27962 2.80909,-0.9475 4.90909,-1.48418 2.1,-0.53668 3.81818,-1.24119 3.81818,-1.56557 0,-0.32438 0.57273,-0.5918 1.27273,-0.59426 0.7,-0.002 2.15068,-0.46253 3.22374,-1.02237 1.07305,-0.55983 3.03669,-1.23142 4.36363,-1.49242 2.35824,-0.46384 3.80018,-0.98574 8.23081,-2.97912 1.2,-0.53989 3.72582,-1.19556 5.61293,-1.45704 1.88711,-0.26148 3.79827,-0.91782 4.24702,-1.45853 0.44875,-0.54071 2.74469,-1.20133 5.1021,-1.46804 2.35741,-0.26671 4.65905,-0.93419 5.11476,-1.48328 0.45571,-0.5491 1.91463,-0.99836 3.24204,-0.99836 1.32742,0 2.59211,-0.28902 2.81043,-0.64227 0.21832,-0.35325 2.28309,-0.87054 4.58838,-1.14952 2.30528,-0.27899 4.8542,-0.93111 5.66425,-1.44916 0.81006,-0.51805 3.59187,-1.18668 6.18182,-1.48585 2.58995,-0.29917 5.35454,-0.99439 6.14354,-1.54494 0.78901,-0.55054 2.83446,-1.00098 4.54546,-1.00098 1.711,0 3.1109,-0.27995 3.1109,-0.62211 0,-0.34216 2.16496,-0.82427 4.81103,-1.07137 2.64606,-0.24709 5.229,-0.79615 5.73986,-1.22012 0.51086,-0.42398 4.80257,-1.1073 9.53713,-1.51849 4.73456,-0.41118 8.83358,-1.11215 9.10895,-1.5577 0.28319,-0.45821 3.29105,-0.93251 6.92457,-1.09192 3.53315,-0.15501 7.07846,-0.56308 7.87846,-0.90683 0.8,-0.34375 4.86366,-0.81945 9.03036,-1.0571 4.30757,-0.24569 8.04246,-0.81929 8.65749,-1.3296 1.59886,-1.32662 97.60115,-1.30233 99.2004,0.0251 0.64194,0.53283 4.1456,1.09463 8.29344,1.32981 3.95007,0.22397 7.83649,0.68673 8.63648,1.02835 0.8,0.34163 3.9091,0.75267 6.9091,0.91343 3,0.16076 6.10909,0.66121 6.90909,1.11213 0.8,0.45091 4.99173,1.13534 9.31496,1.52095 4.32323,0.3856 8.25051,1.02048 8.72727,1.41082 0.47677,0.39035 3.15776,0.94531 5.95776,1.23324 2.8,0.28793 5.41819,0.76606 5.81819,1.0625 0.4,0.29644 2.4801,0.73629 4.62245,0.97743 2.14235,0.24115 4.28383,0.76099 4.75884,1.15522 0.47501,0.39422 3.14036,0.93922 5.923,1.2111 2.78264,0.27188 5.55025,0.9072 6.15025,1.41182 0.6,0.50461 2.89091,1.15303 5.09091,1.44093 2.2,0.28789 4.32727,0.77628 4.72727,1.0853 0.4,0.30903 1.79091,0.78929 3.09091,1.06726 1.3,0.27798 2.36364,0.76897 2.36364,1.0911 0,0.32212 1.79484,0.80993 3.98853,1.08402 2.1937,0.27408 4.14208,0.74677 4.32975,1.05042 0.18766,0.30365 2.23827,0.97459 4.55692,1.49098 2.31864,0.51639 5.24698,1.3905 6.50744,1.94247 1.26045,0.55196 2.81499,1.00357 3.45454,1.00357 0.63955,0 1.16282,0.32728 1.16282,0.72728 0,0.4 0.81936,0.72727 1.82081,0.72727 1.00145,0 3.04206,0.65454 4.53469,1.45454 1.49262,0.8 3.27212,1.45455 3.95444,1.45455 0.68232,0 1.44284,0.32727 1.69006,0.72727 0.24721,0.4 1.25278,0.72727 2.2346,0.72727 0.98182,0 2.43524,0.32728 3.22981,0.72728 3.50696,1.76546 4.16655,2.02512 6.37764,2.51076 1.28687,0.28264 2.33976,0.78916 2.33976,1.1256 0,0.33644 1.06364,0.82114 2.36364,1.07711 2.07916,0.4094 6.3032,2.10924 10.17195,4.09339 0.69457,0.35623 1.76848,0.64768 2.38646,0.64768 0.61798,0 1.30857,0.48201 1.53463,1.07113 0.22607,0.58912 1.60671,1.28512 3.06809,1.54666 1.46138,0.26155 3.14796,0.87013 3.74796,1.3524 1.33456,1.07271 6.13633,3.30254 7.11177,3.30254 0.39057,0 1.08913,0.45667 1.55236,1.01483 0.46323,0.55816 2.03078,1.2378 3.48343,1.51032 1.45266,0.27252 3.68098,1.28858 4.95183,2.2579 1.27085,0.96932 2.80174,1.7624 3.40199,1.7624 0.60025,0 1.68372,0.65455 2.40771,1.45455 0.72399,0.8 1.87603,1.45454 2.56009,1.45454 0.68406,0 2.07587,0.65455 3.0929,1.45455 1.01704,0.8 2.15635,1.45454 2.5318,1.45454 1.14165,0 5.06006,2.14376 6.00956,3.28782 0.4911,0.5917 1.5176,1.07582 2.2812,1.07582 0.7635,0 1.5653,0.46137 1.7817,1.02528 0.2164,0.5639 1.2665,1.24439 2.3335,1.5122 1.0671,0.26781 2.107,0.70644 2.3111,0.97473 0.5666,0.74521 3.0533,2.26128 5.28,3.2191 1.1,0.47317 2,1.25346 2,1.73399 0,0.48052 1.0374,1.10153 2.3053,1.38001 1.2679,0.27849 3.608,1.44994 5.2,2.60324 1.5921,1.1533 3.3365,2.0969 3.8765,2.0969 0.54,0 0.9818,0.45543 0.9818,1.01207 0,0.55664 0.7364,1.20096 1.6364,1.43182 0.9,0.23086 2.4719,1.16634 3.4931,2.07884 2.2428,2.00404 3.9784,3.15932 6.8705,4.57308 1.2,0.58661 3.1636,1.8875 4.3636,2.89086 1.2,1.00336 2.4817,1.82592 2.8481,1.8279 0.3665,0.002 1.1846,0.4928 1.8182,1.0907 2.2991,2.16973 5.7401,4.7311 6.3558,4.7311 0.3466,0 1.4413,0.98182 2.4325,2.18182 0.9912,1.2 2.3278,2.18181 2.9702,2.18181 0.6424,0 1.7603,0.65455 2.4843,1.45455 0.724,0.8 1.6244,1.45454 2.001,1.45454 0.3765,0 2.7348,1.8 5.2406,4 2.5059,2.2 4.8471,4.00527 5.2027,4.01171 0.3557,0.006 3.2648,2.45216 6.4648,5.43493 3.2,2.98277 6.1079,5.43204 6.4621,5.44283 0.3541,0.0108 1.4021,0.83781 2.3289,1.83781 0.9268,1 2.0279,1.81818 2.447,1.81818 0.4191,0 0.762,0.46691 0.762,1.03758 0,0.57067 0.484,1.1434 1.0756,1.27273 0.5915,0.12933 4.9794,4.0806 9.7509,8.7806 4.7715,4.7 9.0109,8.54545 9.4209,8.54545 0.41,0 0.9532,0.65455 1.2072,1.45455 0.2539,0.8 0.7742,1.45454 1.1562,1.45454 0.7793,0 7.4791,6.76263 9.1585,9.24437 0.5985,0.8844 1.7134,1.80645 2.4776,2.04901 0.7642,0.24255 1.3895,0.76668 1.3895,1.16473 0,0.39805 2.2868,3.07599 5.0818,5.95099 2.795,2.87499 5.0859,5.63635 5.0909,6.13635 0.01,0.5 0.4733,0.90909 1.0407,0.90909 0.5674,0 1.7395,1.14546 2.6048,2.54546 0.8652,1.4 1.8737,2.54545 2.2411,2.54545 0.3674,0 0.6679,0.35608 0.6679,0.79128 0,0.43521 2.6182,3.61554 5.8182,7.06741 3.2,3.45187 5.8186,6.61398 5.819,7.0269 5e-4,0.41293 1.7953,2.71441 3.9885,5.11441 2.1933,2.4 3.9929,4.70853 3.9992,5.13006 0.01,0.42154 1.157,1.87665 2.557,3.23358 1.4,1.35693 2.5454,3.01933 2.5454,3.69421 0,0.67488 0.6057,1.38544 1.346,1.57903 0.7403,0.19359 2.362,2.11358 3.6039,4.26664 1.2419,2.15307 3.0908,4.80038 4.1086,5.88292 1.0178,1.08254 1.8506,2.42273 1.8506,2.97819 0,0.55547 0.6546,1.60229 1.4546,2.32628 0.8,0.72399 1.4545,1.73967 1.4545,2.25707 0,0.51739 0.8465,1.85415 1.8812,2.97058 1.0347,1.11642 2.3372,3.0151 2.8945,4.21928 1.2008,2.59473 2.5665,4.78037 3.6297,5.80904 1.669,1.6149 5.9011,8.61642 9.3516,15.4713 1.0571,2.1 2.2137,3.81818 2.5702,3.81818 0.3565,0 0.8638,0.98182 1.1273,2.18182 0.2636,1.2 0.7666,2.18182 1.1178,2.18182 0.3512,0 2.1289,3.02727 3.9504,6.72727 1.8215,3.7 3.6123,7.21818 3.9795,7.81818 0.3672,0.6 1.3614,2.56364 2.2094,4.36364 0.848,1.8 1.818,3.76364 2.1556,4.36364 0.3376,0.6 0.9736,1.90909 1.4135,2.90909 0.4398,1 1.0943,2.30909 1.4545,2.90909 1.7607,2.93316 5.1739,10.31807 5.1739,11.1943 0,0.54518 0.4822,1.39146 1.0717,1.88063 0.5894,0.48917 1.2845,2.08379 1.5448,3.5436 0.2602,1.45981 1.2074,3.63928 2.1049,4.84328 0.8975,1.204 1.8751,3.33127 2.1725,4.72727 0.2974,1.396 1.0092,3.07032 1.5818,3.72071 0.5725,0.65039 1.2349,2.45039 1.4719,4 0.2371,1.54961 0.8099,3.30839 1.2731,3.90839 1.3609,1.76316 2.4618,4.53846 2.928,7.38146 0.2394,1.45981 0.9014,3.04112 1.4713,3.51402 0.5698,0.4729 1.2512,2.29524 1.5143,4.04964 0.2631,1.7544 0.9337,3.56772 1.4902,4.02958 0.5565,0.46187 1.0119,1.78151 1.0119,2.93253 0,1.15102 0.3272,2.09277 0.7272,2.09277 0.4,0 0.7273,1.02778 0.7273,2.28397 0,1.25619 0.6351,3.62892 1.4113,5.27273 0.7762,1.64381 1.6104,4.51653 1.8538,6.38383 0.2434,1.86729 0.9174,3.78918 1.4978,4.27086 0.5804,0.48169 1.0553,1.98118 1.0553,3.3322 0,1.35102 0.3273,2.4564 0.7273,2.4564 0.4,0 0.7272,0.909 0.7272,2.02 0,1.111 0.5155,2.75588 1.1454,3.6553 0.63,0.89941 1.315,3.5086 1.5222,5.79818 0.2072,2.28959 0.8393,5.19859 1.4047,6.46444 0.5654,1.26586 1.2361,4.29313 1.4905,6.72727 0.2545,2.43415 0.7011,4.42572 0.9926,4.42572 0.2915,0 0.7452,1.62291 1.0084,3.60647 0.2631,1.98356 0.7669,3.78478 1.1195,4.00272 0.3526,0.21793 0.873,3.25865 1.1563,6.75716 0.2834,3.49851 0.7548,6.6882 1.0477,7.0882 0.918,1.25373 2.2036,9.1493 2.2036,13.53291 0,2.30969 0.2887,4.37783 0.6415,4.59587 0.3528,0.21805 0.8759,2.61009 1.1625,5.31565 0.2865,2.70556 0.7722,5.24647 1.0792,5.64647 0.3071,0.4 0.7807,6.43894 1.0524,13.41986 0.3171,8.14435 0.8081,13.07081 1.3702,13.74808 0.6775,0.81623 0.9196,46.14518 1.0682,199.96479 0.1716,177.65723 0.073,199.09103 -0.9223,200.61003 -0.6129,0.9354 -1.3165,3.176 -1.5637,4.979 -0.2471,1.803 -0.6939,3.2782 -0.9929,3.2782 -0.299,0 -0.7533,0.5728 -1.0095,1.2728 -0.2562,0.7 -1.2697,2.5818 -2.2522,4.1818 -0.9825,1.6 -2.1797,3.7272 -2.6605,4.7272 -1.0963,2.2805 -7.9208,9.4546 -8.9938,9.4546 -0.4388,0 -1.7385,0.9818 -2.8882,2.1818 -1.1496,1.2 -2.6109,2.1818 -3.2471,2.1818 -0.6363,0 -1.7173,0.6546 -2.4023,1.4546 -0.685,0.8 -1.9032,1.4545 -2.7071,1.4545 -0.8039,0 -1.4616,0.3273 -1.4616,0.7273 0,0.4 -0.5728,0.7293 -1.2728,0.7317 -0.7,0 -2.2545,0.5752 -3.4545,1.2728 -1.9709,1.1456 -4.854,1.2682 -29.8182,1.2682 -24.9642,0 -27.8473,-0.1226 -29.8182,-1.2682 -1.2,-0.6976 -2.7545,-1.2703 -3.4545,-1.2728 -0.7,0 -1.2727,-0.2541 -1.2727,-0.5593 0,-0.576 -1.1423,-1.2469 -6.3637,-3.7373 -1.7,-0.8109 -3.0909,-1.7579 -3.0909,-2.1045 0,-0.3467 -0.9,-1.0775 -2,-1.6242 -2.3233,-1.1545 -8.1818,-6.5171 -8.1818,-7.4891 0,-0.3639 -0.9818,-1.7799 -2.1818,-3.1466 -1.2,-1.3667 -2.1818,-2.9645 -2.1818,-3.5506 0,-0.586 -0.2474,-1.0656 -0.5498,-1.0656 -0.3023,0 -0.9783,-1.0636 -1.5022,-2.3636 -0.5238,-1.3 -1.2582,-2.9319 -1.632,-3.6265 -0.3738,-0.6946 -0.6797,-1.8142 -0.6797,-2.4882 0,-0.6739 -0.5727,-1.8582 -1.2727,-2.6316 -1.2047,-1.3312 -1.2727,-10.7141 -1.2727,-175.43548 0,-164.72139 0.068,-174.10431 1.2727,-175.43546 0.7,-0.77351 1.2727,-1.79413 1.2727,-2.26806 0,-0.47394 0.2921,-1.42998 0.649,-2.12456 0.357,-0.69457 1.018,-2.08104 1.469,-3.08104 0.451,-1 1.6238,-3.12727 2.6063,-4.72727 0.9825,-1.6 1.996,-3.48182 2.2522,-4.18182 0.2562,-0.7 0.755,-1.27272 1.1083,-1.27272 0.3534,0 0.6425,-0.45274 0.6425,-1.00609 0,-0.55335 0.6545,-1.17725 1.4545,-1.38646 0.8,-0.2092 1.4546,-0.90192 1.4546,-1.53937 0,-0.63744 0.5012,-1.15899 1.1137,-1.15899 0.6126,0 1.3021,-0.49091 1.5324,-1.09091 0.2302,-0.6 0.8745,-1.09091 1.4317,-1.09091 0.5572,0 1.0131,-0.49091 1.0131,-1.09091 0,-0.6 0.4402,-1.09091 0.9782,-1.09091 0.538,0 1.5705,-0.65454 2.2945,-1.45454 0.724,-0.8 1.7566,-1.45455 2.2946,-1.45455 0.538,0 0.9781,-0.32727 0.9781,-0.72727 0,-0.4 0.3309,-0.72728 0.7352,-0.72728 0.4044,0 2.1226,-0.62347 3.8182,-1.3855 1.6957,-0.76202 4.0616,-1.60615 5.2575,-1.87584 1.196,-0.26969 2.411,-0.87348 2.7,-1.34177 0.3779,-0.61229 6.7633,-0.91354 22.7346,-1.07256 12.215,-0.12163 22.2091,-0.49255 22.2091,-0.82427 0,-0.33173 0.6992,-0.78599 1.5539,-1.00948 1.3828,-0.36162 1.5116,-0.78119 1.1701,-3.81114 -0.2111,-1.87263 -0.6983,-3.60977 -1.0828,-3.86029 -0.3844,-0.25053 -0.9252,-3.51608 -1.2018,-7.25677 -0.2766,-3.7407 -0.9525,-7.50434 -1.502,-8.36364 -0.5496,-0.8593 -1.2296,-3.85328 -1.5112,-6.65328 -0.2816,-2.8 -0.7617,-5.41818 -1.0669,-5.81818 -0.3053,-0.4 -0.7942,-1.87273 -1.0866,-3.27273 -0.2924,-1.4 -0.7761,-2.87272 -1.0749,-3.27272 -0.2989,-0.4 -0.7419,-2.49034 -0.9845,-4.6452 -0.2426,-2.15486 -0.9421,-4.47154 -1.5545,-5.14818 -0.6123,-0.67663 -1.1134,-2.27255 -1.1134,-3.54649 0,-1.27393 -0.3272,-2.96634 -0.7272,-3.76091 -0.4,-0.79457 -1.0546,-2.09478 -1.4546,-2.88936 -0.4,-0.79457 -0.7272,-2.41162 -0.7272,-3.59344 0,-1.18182 -0.2843,-2.32446 -0.6318,-2.5392 -0.3474,-0.21474 -0.8378,-1.67934 -1.0897,-3.25466 -0.2519,-1.57532 -0.7936,-2.97605 -1.2036,-3.11274 -0.4101,-0.13669 -0.9276,-1.55505 -1.1501,-3.1519 -0.2224,-1.59686 -0.6726,-3.55792 -1.0003,-4.35792 -0.3278,-0.8 -0.9893,-2.6 -1.47,-4 -1.326,-3.86151 -1.847,-5.15871 -3.5375,-8.80693 -0.8544,-1.84382 -1.5534,-3.84053 -1.5534,-4.43714 0,-0.59661 -0.8003,-2.58988 -1.7784,-4.42949 -0.9782,-1.8396 -1.9942,-4.49487 -2.2579,-5.90059 -0.2637,-1.40571 -0.9106,-2.91362 -1.4375,-3.3509 -0.5269,-0.43728 -1.1716,-2.05966 -1.4327,-3.6053 -0.2612,-1.54564 -0.9413,-2.98925 -1.5114,-3.20803 -0.5702,-0.21879 -1.0367,-1.04329 -1.0367,-1.83224 0,-0.78894 -0.3272,-1.63671 -0.7272,-1.88393 -0.4,-0.24721 -0.7273,-1.03398 -0.7273,-1.74838 0,-0.7144 -0.6307,-1.86968 -1.4016,-2.5673 -0.7708,-0.69762 -1.6146,-2.5295 -1.875,-4.07085 -0.2604,-1.54135 -0.9388,-3.18864 -1.5075,-3.66065 -0.5688,-0.472 -1.0341,-1.35995 -1.0341,-1.97322 0,-0.61326 -0.8233,-2.1945 -1.8297,-3.51385 -1.0063,-1.31935 -2.0346,-3.42383 -2.2852,-4.67661 -0.2505,-1.25278 -0.8799,-2.44063 -1.3986,-2.63967 -0.5187,-0.19904 -1.1684,-1.39818 -1.4439,-2.66477 -0.2754,-1.26658 -1.4409,-3.3779 -2.5899,-4.69182 -1.149,-1.31392 -2.089,-3.01278 -2.089,-3.77526 0,-0.76247 -0.3323,-1.59165 -0.7383,-1.84261 -0.4061,-0.25096 -1.2424,-1.49754 -1.8585,-2.77019 -2.1593,-4.46006 -2.8437,-5.58663 -3.3939,-5.58663 -0.3051,0 -0.5548,-0.60382 -0.5548,-1.34183 0,-0.738 -0.6545,-1.93418 -1.4545,-2.65817 -0.8,-0.72399 -1.4546,-1.73633 -1.4546,-2.24965 0,-0.51332 -0.9818,-2.00826 -2.1818,-3.32209 -1.2,-1.31383 -2.1818,-2.91967 -2.1818,-3.56853 0,-0.64886 -0.6546,-1.7721 -1.4546,-2.49609 -0.8,-0.72399 -1.4545,-1.74515 -1.4545,-2.26923 0,-0.52409 -0.9818,-2.07112 -2.1818,-3.43784 -1.2,-1.36673 -2.1819,-2.87003 -2.1819,-3.34068 0,-0.88613 -4.3096,-6.76662 -5.2727,-7.19468 -0.3,-0.13333 -0.5454,-0.58104 -0.5454,-0.9949 0,-0.41386 -0.9819,-1.8707 -2.1819,-3.23742 -1.2,-1.36673 -2.1818,-2.96448 -2.1818,-3.55056 0,-0.58608 -0.4909,-1.0656 -1.0909,-1.0656 -0.6,0 -1.0909,-0.362 -1.0909,-0.80444 0,-0.44243 -0.9818,-2.04407 -2.1818,-3.5592 -1.2,-1.51512 -2.1818,-3.03854 -2.1818,-3.38537 0,-0.34683 -0.9818,-1.44159 -2.1818,-2.43281 -1.2,-0.99122 -2.1819,-2.08132 -2.1819,-2.42245 0,-0.83625 -2.8143,-4.47673 -5.2727,-6.82038 -1.1,-1.04868 -2,-2.22377 -2,-2.61132 0,-0.38754 -2.7818,-3.73514 -6.1818,-7.43911 -3.4,-3.70397 -6.1818,-7.07082 -6.1818,-7.4819 0,-1.21969 -37.3114,-38.35772 -39.661,-39.47667 -1.1865,-0.56504 -2.4803,-1.76226 -2.8751,-2.66048 -0.3949,-0.89823 -1.0494,-1.63962 -1.4546,-1.64755 -0.4051,-0.008 -3.1911,-2.29235 -6.1911,-5.0765 -3,-2.78415 -5.8133,-5.06858 -6.2518,-5.0765 -0.4385,-0.008 -2.1245,-1.47283 -3.7468,-3.25535 -1.6222,-1.78252 -3.7998,-3.45437 -4.8391,-3.71521 -1.0393,-0.26084 -1.8896,-0.92969 -1.8896,-1.48633 0,-0.55663 -0.3383,-1.01206 -0.7518,-1.01206 -0.4135,0 -1.7115,-0.98182 -2.8846,-2.18182 -1.173,-1.2 -2.3438,-2.18182 -2.6018,-2.18182 -0.258,0 -2.0326,-1.30909 -3.9436,-2.90909 -1.9111,-1.6 -3.7688,-2.90909 -4.1284,-2.90909 -0.3596,0 -1.7869,-0.96852 -3.1718,-2.15226 -1.3849,-1.18375 -2.8764,-2.16556 -3.3144,-2.18182 -0.438,-0.0163 -1.3887,-0.6841 -2.1127,-1.4841 -0.724,-0.8 -1.8008,-1.45455 -2.393,-1.45455 -0.5921,0 -1.8348,-0.81818 -2.7616,-1.81818 -0.9268,-1 -1.9772,-1.81818 -2.3343,-1.81818 -0.3571,0 -1.2417,-0.65455 -1.9656,-1.45455 -0.724,-0.8 -1.7566,-1.45454 -2.2946,-1.45454 -0.538,0 -0.9782,-0.32727 -0.9782,-0.72727 0,-0.4 -0.4402,-0.72728 -0.9782,-0.72728 -0.538,0 -1.5705,-0.65454 -2.2945,-1.45454 -0.724,-0.8 -1.8173,-1.45455 -2.4295,-1.45455 -0.6122,0 -1.7888,-0.62263 -2.6145,-1.38363 -1.4445,-1.33116 -4.4637,-3.17428 -9.86509,-6.02232 -2.87346,-1.51511 -5.27784,-2.9628 -5.81818,-3.50314 -0.66207,-0.66207 -3.24539,-2.18035 -5.09091,-2.99206 -1,-0.43982 -2.30909,-1.0714 -2.90909,-1.40351 -0.6,-0.33211 -2.80909,-1.49612 -4.90909,-2.58669 -2.1,-1.09057 -3.81818,-2.21571 -3.81818,-2.5003 0,-0.28459 -1.00837,-0.71911 -2.24081,-0.9656 -1.23244,-0.24649 -3.07658,-1.10558 -4.09808,-1.90909 -1.0215,-0.80351 -2.42761,-1.46093 -3.12468,-1.46093 -0.69708,0 -1.67484,-0.49091 -2.17279,-1.09091 -0.49796,-0.6 -1.35622,-1.09091 -1.90724,-1.09091 -0.55102,0 -1.00186,-0.32727 -1.00186,-0.72727 0,-0.4 -0.61447,-0.72727 -1.36549,-0.72727 -0.75102,0 -1.74905,-0.46216 -2.21784,-1.02701 -0.46879,-0.56486 -2.5462,-1.43337 -4.61646,-1.93001 -2.07027,-0.49665 -4.20471,-1.34359 -4.7432,-1.88208 -0.5385,-0.5385 -1.58298,-0.97908 -2.32107,-0.97908 -0.7381,0 -1.45109,-0.24546 -1.58442,-0.54546 -0.33498,-0.75371 -4.90812,-2.94127 -7.33504,-3.5087 -1.10094,-0.25742 -3.2156,-1.0869 -4.69923,-1.8433 -1.48364,-0.7564 -3.26355,-1.37527 -3.95537,-1.37527 -0.69182,0 -1.46011,-0.32727 -1.70733,-0.72727 -0.24721,-0.4 -1.04464,-0.72728 -1.77205,-0.72728 -0.72742,0 -1.70876,-0.46532 -2.18076,-1.03405 -0.47201,-0.56873 -2.23026,-1.25891 -3.90724,-1.53373 -1.67697,-0.27481 -3.57688,-0.96505 -4.22202,-1.53385 -0.64514,-0.5688 -2.85424,-1.2333 -4.90909,-1.47667 -2.05486,-0.24336 -3.73611,-0.69817 -3.73611,-1.01067 0,-0.3125 -0.98182,-0.78383 -2.18182,-1.04739 -1.2,-0.26356 -2.18182,-0.73489 -2.18182,-1.04739 0,-0.3125 -1.56909,-0.75402 -3.48687,-0.98116 -1.91778,-0.22713 -4.61778,-0.98263 -6,-1.6789 -1.38222,-0.69626 -3.08141,-1.53783 -3.77598,-1.87015 -0.69458,-0.33232 -2.33094,-0.60544 -3.63637,-0.60694 -1.30543,-10e-4 -3.36137,-0.60515 -4.56876,-1.34146 -1.27799,-0.77936 -4.24381,-1.50317 -7.09798,-1.73228 -2.6965,-0.21645 -5.32487,-0.74389 -5.84083,-1.1721 -0.51595,-0.4282 -2.32002,-0.99953 -4.00904,-1.26961 -1.68902,-0.27009 -3.24664,-0.77535 -3.46139,-1.12281 -0.21474,-0.34746 -1.98817,-0.63174 -3.94096,-0.63174 -1.95278,0 -3.75278,-0.32728 -4,-0.72728 -0.24721,-0.4 -1.71994,-0.72727 -3.27272,-0.72727 -1.55279,0 -2.99797,-0.28271 -3.21153,-0.62824 -0.21355,-0.34554 -2.68263,-0.79241 -5.48684,-0.99305 -2.80421,-0.20064 -5.58924,-0.77201 -6.18894,-1.26972 -0.5997,-0.49771 -3.95902,-1.07517 -7.46516,-1.28324 -3.50614,-0.20808 -6.70208,-0.62333 -7.10208,-0.92279 -0.4,-0.29946 -2.99206,-0.77988 -5.76015,-1.06759 -2.76808,-0.28771 -5.5499,-0.79121 -6.18181,-1.11889 -0.63192,-0.32768 -9.32807,-0.96389 -19.32479,-1.41379 -9.99671,-0.44991 -18.48944,-1.13161 -18.87273,-1.5149 -1.01356,-1.01357 -42.07051,-0.92324 -43.08855,0.0948 -0.49181,0.49182 -8.05338,1.0608 -19.96363,1.50219 -10.54458,0.39079 -19.82651,0.99391 -20.62651,1.34028 -0.8,0.34637 -3.09091,0.84646 -5.09091,1.11133 -2,0.26486 -3.96364,0.73351 -4.36364,1.04144 -0.4,0.30793 -3.97768,0.76335 -7.9504,1.01204 -4.2201,0.26419 -7.43962,0.80246 -7.74384,1.29471 -0.28639,0.46339 -3.00871,1.00219 -6.0496,1.19735 -3.04088,0.19515 -5.52888,0.63905 -5.52888,0.98645 0,0.3474 -0.71667,0.63163 -1.59259,0.63163 -2.10356,0 -10.01922,1.47858 -11.86196,2.21571 -0.8,0.32001 -2.89262,0.74576 -4.65027,0.9461 -1.75764,0.20035 -3.41867,0.725 -3.69116,1.1659 -0.27249,0.4409 -2.27078,0.98757 -4.44064,1.21481 -2.16986,0.22724 -5.07751,0.92108 -6.46144,1.54186 -1.38393,0.62078 -3.92781,1.2878 -5.65306,1.48226 -1.72525,0.19446 -3.31226,0.63743 -3.52668,0.98437 -0.21442,0.34694 -1.32899,0.63081 -2.47681,0.63081 -1.14782,0 -2.6102,0.52325 -3.24973,1.16278 -0.63954,0.63954 -2.54473,1.32501 -4.23377,1.52327 -1.68904,0.19827 -4.70734,1.12593 -6.70734,2.06148 -2,0.93555 -5.20998,1.90935 -7.13328,2.16401 -1.92329,0.25466 -3.66132,0.89148 -3.86228,1.41516 -0.20095,0.52369 -1.94737,1.16201 -3.88093,1.41851 -1.93355,0.25649 -3.91742,0.95057 -4.40858,1.54239 -0.49117,0.59182 -1.34831,1.07603 -1.90476,1.07603 -0.55645,0 -1.58001,0.30383 -2.27459,0.67517 -2.88693,1.54345 -7.95302,3.63811 -9.99013,4.13058 -1.2,0.29011 -3.62147,1.29113 -5.38104,2.22449 -1.75958,0.93337 -3.60132,1.69704 -4.09277,1.69704 -0.49145,0 -1.3066,0.4977 -1.81145,1.10601 -0.50486,0.60831 -2.34493,1.46535 -4.08905,1.90452 -1.74413,0.43918 -3.17114,1.06092 -3.17114,1.38165 0,0.32074 -1.06364,0.80863 -2.36364,1.08422 -1.3,0.27558 -3.38254,1.26594 -4.62787,2.2008 -1.24533,0.93485 -3.20897,1.92856 -4.36364,2.20823 -1.15467,0.27967 -2.9681,1.11532 -4.02985,1.85698 -1.06174,0.74167 -2.30053,1.34849 -2.75286,1.34849 -0.76247,0 -4.30593,2.00613 -5.13487,2.9071 -0.2,0.21738 -1.18181,0.80416 -2.18181,1.30395 -1,0.49979 -3.12728,1.71255 -4.72728,2.69503 -1.6,0.98248 -3.48182,1.99597 -4.18182,2.25222 -0.7,0.25624 -1.27272,0.71409 -1.27272,1.01744 0,0.30334 -0.99688,0.75091 -2.21528,0.99459 -1.21841,0.24368 -3.26386,1.21801 -4.54546,2.16518 -1.28159,0.94716 -2.82108,1.92722 -3.42108,2.1779 -0.6,0.25069 -2.4,1.28299 -4,2.29402 -1.6,1.01102 -3.97273,2.33144 -5.27273,2.93425 -1.3,0.60281 -2.36363,1.41267 -2.36363,1.79968 0,0.38701 -0.89598,0.92853 -1.99106,1.20338 -1.09509,0.27485 -2.80433,1.42654 -3.79832,2.55931 -0.99399,1.13277 -2.08348,2.05959 -2.4211,2.05959 -0.33761,0 -1.68654,0.81818 -2.9976,1.81818 -1.31107,1 -2.63473,1.81818 -2.94146,1.81818 -0.30673,0 -2.12126,1.30909 -4.03228,2.90909 -1.91102,1.6 -3.76881,2.90909 -4.1284,2.90909 -0.3596,0 -1.78691,0.96852 -3.1718,2.15226 -1.38489,1.18375 -2.91556,2.16557 -3.40148,2.18182 -0.48593,0.0163 -1.23381,0.68411 -1.66196,1.48411 -0.42814,0.8 -1.13158,1.45454 -1.56319,1.45454 -0.43162,0 -2.62919,1.58805 -4.88351,3.529 -2.25431,1.94095 -4.4904,3.65913 -4.96907,3.81818 -0.47868,0.15905 -3.48147,2.66191 -6.67288,5.56191 -3.1914,2.9 -6.14166,5.27273 -6.55613,5.27273 -0.41447,0 -4.8165,3.92727 -9.7823,8.72727 -4.96579,4.8 -9.27188,8.72727 -9.56908,8.72727 -0.86811,0 -12.73111,12.16461 -12.73111,13.05479 0,0.44497 -0.55853,1.02337 -1.24119,1.28533 -1.65982,0.63694 -4.57699,3.2115 -4.57699,4.03945 0,0.36449 -3.6,4.45406 -8,9.08792 -4.4,4.63387 -8,8.85845 -8,9.38796 0,0.5295 -0.50118,0.96273 -1.11373,0.96273 -0.61255,0 -1.32597,0.57273 -1.58536,1.27273 -0.2594,0.7 -3.03095,4.08617 -6.159,7.52482 -3.12805,3.43865 -5.68736,6.63983 -5.68736,7.11374 0,0.4739 -0.47091,1.04234 -1.04647,1.2632 -0.57556,0.22086 -1.2561,1.35605 -1.51233,2.52263 -0.25622,1.16659 -0.92322,2.12106 -1.48222,2.12106 -0.559,0 -1.58877,0.9 -2.28839,2 -0.69962,1.1 -1.68898,2.26172 -2.19858,2.5816 -0.50961,0.31987 -0.92656,1.15864 -0.92656,1.86393 0,0.70529 -0.98181,2.22298 -2.18181,3.37265 -1.2,1.14968 -2.18182,2.3782 -2.18182,2.73005 0,0.35185 -0.81818,1.71242 -1.81818,3.02349 -1,1.31107 -1.81818,2.76196 -1.81818,3.2242 0,0.46225 -0.49091,0.84045 -1.09091,0.84045 -0.6,0 -1.09091,0.37819 -1.09091,0.84044 0,0.46224 -0.77109,1.85315 -1.71354,3.09091 -0.94245,1.23775 -1.93262,2.94366 -2.20039,3.79091 -0.26776,0.84725 -1.13303,2.12524 -1.92282,2.83999 -0.78979,0.71475 -1.43598,1.73973 -1.43598,2.27774 0,0.538 -0.32096,0.97819 -0.71325,0.97819 -0.39228,0 -1.45592,1.62971 -2.36363,3.62157 -0.90772,1.99187 -2.05948,3.62823 -2.55948,3.63637 -0.5,0.008 -0.90909,0.6081 -0.90909,1.33326 0,0.72517 -0.95142,2.23 -2.11427,3.34407 -1.16284,1.11408 -2.32313,3.13895 -2.57841,4.49971 -0.25528,1.36076 -0.75262,2.47411 -1.10519,2.47411 -0.35258,0 -1.09573,0.9 -1.65144,2 -0.55571,1.1 -1.37035,2.65454 -1.81031,3.45454 -0.43996,0.8 -1.3123,2.63673 -1.93855,4.08163 -0.62624,1.4449 -1.63558,3.03951 -2.24296,3.5436 -0.60738,0.50408 -1.10433,1.3902 -1.10433,1.96915 0,0.57895 -0.98182,2.47966 -2.18182,4.2238 -1.2,1.74414 -2.18181,3.64485 -2.18181,4.22381 0,0.57895 -0.46988,1.4426 -1.04416,1.91921 -0.57429,0.47662 -1.27209,1.90433 -1.55067,3.17269 -0.27858,1.26837 -1.24082,3.29121 -2.13832,4.4952 -0.89749,1.204 -1.84472,3.38348 -2.10494,4.84329 -0.26022,1.4598 -0.9298,3.03319 -1.48794,3.49641 -0.55815,0.46322 -1.2328,2.13247 -1.49923,3.70944 -0.29664,1.75578 -0.88251,2.86722 -1.5114,2.86722 -0.56484,0 -1.02698,0.49091 -1.02698,1.09091 0,0.6 -0.32727,1.09091 -0.72727,1.09091 -0.4,0 -0.72728,0.82175 -0.72728,1.82611 0,1.70176 -0.97711,4.28504 -4.42853,11.7081 -0.76431,1.64381 -1.38965,3.52563 -1.38965,4.18181 0,0.65619 -0.32727,1.19307 -0.72727,1.19307 -0.4,0 -0.72727,0.61447 -0.72727,1.3655 0,0.75102 -0.47022,1.75574 -1.04494,2.23271 -0.57471,0.47697 -1.26574,2.63453 -1.53562,4.79456 -0.26988,2.16004 -0.91953,4.28325 -1.44367,4.71825 -0.52414,0.43499 -1.1792,2.16297 -1.45569,3.83994 -0.2765,1.67697 -0.74786,3.37631 -1.04748,3.77631 -0.29962,0.4 -0.77948,1.70582 -1.06634,2.90181 -0.28687,1.19599 -0.82039,2.3592 -1.1856,2.58491 -0.3652,0.22571 -0.87424,2.02899 -1.13119,4.00729 -0.25695,1.9783 -0.87165,4.08781 -1.366,4.68781 -0.49435,0.6 -1.1133,2.78802 -1.37544,4.86227 -0.26214,2.07425 -0.95703,4.69243 -1.54421,5.81818 -0.58717,1.12575 -1.0696,2.61955 -1.07207,3.31955 -0.002,0.7 -0.2863,1.27273 -0.63074,1.27273 -0.34445,0 -0.80848,2.00953 -1.03119,4.46562 -0.22271,2.4561 -0.72597,4.66519 -1.11835,4.90909 -0.39238,0.24391 -1.12531,3.7162 -1.62873,7.7162 -0.50342,4 -1.35471,7.7894 -1.89175,8.4209 -0.53705,0.63149 -0.97645,2.494 -0.97645,4.13889 0,1.6449 -0.32727,3.19299 -0.72727,3.4402 -0.4,0.24722 -0.72727,2.20679 -0.72727,4.35461 0,2.50153 -0.3921,4.29723 -1.09091,4.99604 -0.6,0.6 -1.09091,1.9609 -1.09091,3.02422 0,1.48025 0.51128,2.12629 2.18182,2.75684 1.2,0.45295 2.18182,1.07907 2.18182,1.39138 0,0.3123 9.12356,0.56782 20.27458,0.56782 16.58036,0 20.43,0.18726 21.1275,1.0277 0.4691,0.56523 2.55463,1.25932 4.6345,1.54243 2.07988,0.2831 4.6503,1.12973 5.71205,1.88139 1.06175,0.75167 2.25161,1.36666 2.64414,1.36666 2.14417,0 4.63596,1.91532 12.30019,9.45455 6.33384,6.23054 7.48885,7.51929 7.48885,8.356 0,0.32869 0.80072,1.64741 1.77938,2.9305 0.97866,1.28308 2.0107,3.27761 2.29343,4.43228 0.28273,1.15467 1.11837,3.24001 1.85699,4.63408 0.73861,1.39408 1.34293,3.74749 1.34293,5.22981 0,1.48232 0.32727,2.89739 0.72727,3.1446 0.48147,0.29757 0.72727,57.569 0.72727,169.45454 0,111.88553 -0.2458,169.15693 -0.72727,169.45453 -0.4,0.2472 -0.72727,1.3886 -0.72727,2.5364 0,1.1479 -0.44307,2.5301 -0.9846,3.0716 -0.54153,0.5415 -1.21899,2.5476 -1.50546,4.4579 -0.28647,1.9104 -0.96886,3.6453 -1.51641,3.8554 -0.54756,0.2101 -1.2052,1.3365 -1.46142,2.5031 -0.25623,1.1666 -0.76713,2.1211 -1.13535,2.1211 -0.36822,0 -0.66949,0.4933 -0.66949,1.0962 0,1.375 -11.37307,12.7219 -12.75132,12.7219 -0.55863,0 -1.32671,0.5728 -1.70685,1.2728 -0.38014,0.7 -2.10983,1.9728 -3.84377,2.8285 -1.73393,0.8556 -4.9526,2.4832 -7.1526,3.6167 l -4,2.061 -26.18182,0.1654 c -14.4,0.091 -26.67272,-0.011 -27.27272,-0.2274 z m 155.48964,-27.4345 c -4.65709,-2.0669 -9.10654,-7.9931 -11.55193,-15.386 -1.58203,-4.7827 -1.69587,-6.4115 -1.95581,-27.9829 -0.43374,-35.9932 1.33328,-44.8692 10.59887,-53.2401 6.49071,-5.864 14.22741,-4.2321 20.27726,4.2772 3.0853,4.3395 5.09764,10.7997 6.15956,19.7739 1.10967,9.3778 0.32282,44.2388 -1.16492,51.6115 -3.18981,15.8075 -13.07667,25.068 -22.36303,20.9464 z m 80.83455,-3.2457 c -7.49623,-4.7624 -11.11177,-13.949 -12.07202,-30.6731 -0.50334,-8.7664 -0.7246,-8.3554 6.6569,-12.3667 2.4,-1.3043 4.70134,-2.6362 5.11409,-2.9598 1.90204,-1.4911 18.21158,-9.4008 19.38437,-9.4008 0.72585,0 1.31972,-0.3273 1.31972,-0.7273 0,-0.4 1.18568,-0.7272 2.63484,-0.7272 h 2.63483 l -0.3732,17.6363 c -0.31181,14.7355 -0.60946,18.417 -1.8096,22.3824 -4.75113,15.6983 -14.39784,22.6125 -23.48993,16.8362 z m 251.31214,-0.4096 c -2.98395,-1.3023 -7.41925,-6.3793 -9.51301,-10.8893 -3.86018,-8.3149 -3.99599,-10.3574 -3.77861,-56.8288 l 0.20071,-42.9091 16.72728,-0.5503 c 9.2,-0.3026 17.46363,-0.3782 18.36363,-0.1679 l 1.63637,0.3823 -10e-4,41.6225 c -0.001,46.253 -0.28193,49.9505 -4.43439,58.3853 -2.37004,4.8142 -7.21899,9.9998 -10.52663,11.2574 -2.53729,0.9646 -6.05249,0.8422 -8.67435,-0.3021 z m 326.18176,-0.2178 c -6.0369,-1.8053 -9.5239,-5.0997 -12.7474,-12.0433 -3.7501,-8.0781 -4.1381,-12.0875 -3.7978,-39.2405 0.2887,-23.0351 0.4346,-25.3529 1.9066,-30.2908 2.9617,-9.9349 7.1581,-15.8019 12.86,-17.9794 10.4315,-3.9838 19.7237,6.4333 22.2087,24.8972 1.1626,8.6388 0.3415,46.2129 -1.1665,53.382 -1.1187,5.318 -3.6605,11.0579 -6.6756,15.0747 -3.061,4.078 -9.3408,7.1711 -12.588,6.2001 z m -491.99627,-1.4594 c -2.65171,-0.7273 -7.34578,-4.4333 -9.19013,-7.2557 -2.55408,-3.9084 -4.23791,-8.4589 -5.42741,-14.6673 -1.25444,-6.5474 -1.47823,-49.5437 -0.26962,-51.802 0.42782,-0.7994 1.51725,-1.4068 2.52333,-1.4068 0.97376,0 2.93584,-0.6545 4.36017,-1.4545 1.42433,-0.8 3.84876,-1.4546 5.38762,-1.4546 1.5998,0 3.18561,-0.4671 3.70329,-1.0909 0.49795,-0.6 1.8278,-1.0909 2.95522,-1.0909 1.12741,0 2.25211,-0.3273 2.49932,-0.7273 0.24722,-0.4 1.20828,-0.7272 2.13569,-0.7272 0.92742,0 2.09363,-0.4909 2.59159,-1.0909 0.49795,-0.6 1.80704,-1.0909 2.90909,-1.0909 1.10204,0 2.41113,-0.491 2.90909,-1.091 1.30639,-1.5741 3.45149,-1.3407 4.42678,0.4817 1.14282,2.1353 0.46977,56.5964 -0.77578,62.7735 -0.97129,4.8168 -4.21794,12.4779 -6.53784,15.4272 -3.68627,4.6863 -9.92546,7.4401 -14.20041,6.2676 z m 83.25412,-0.4636 c -7.58795,-3.5185 -12.42145,-12.4334 -13.67042,-25.2136 -0.33227,-3.4 -0.45702,-21.017 -0.27721,-39.1488 0.29368,-29.6154 0.44703,-33.0038 1.50838,-33.3298 0.64981,-0.1995 2.05014,-0.828 3.11186,-1.3967 1.06172,-0.5686 3.41513,-1.0338 5.22981,-1.0338 1.81467,0 3.50167,-0.3273 3.74889,-0.7273 0.24721,-0.4 2.37448,-0.7273 4.72727,-0.7273 2.35279,0 4.48006,-0.3272 4.72727,-0.7272 0.24722,-0.4 2.70176,-0.7273 5.45455,-0.7273 2.75278,0 5.20733,-0.3273 5.45454,-0.7273 0.24722,-0.4 1.10222,-0.7273 1.90002,-0.7273 1.43518,0 1.4477,0.4332 1.18317,40.9091 -0.28734,43.9659 -0.3019,44.1453 -4.27094,52.589 -4.22981,8.9986 -12.59249,13.8794 -18.82719,10.9883 z m 241.07769,-1.8525 c -5.89241,-2.6766 -10.6335,-10.0525 -12.89678,-20.0639 -1.02979,-4.5552 -0.78112,-68.017 0.27074,-69.0972 0.44753,-0.4596 1.19245,-0.3956 2.11702,0.1818 0.78459,0.49 2.22983,0.8909 3.21165,0.8909 0.98182,0 1.9874,0.3273 2.23461,0.7273 0.24721,0.4 1.65744,0.7377 3.13383,0.7504 1.47639,0.013 3.31963,0.5036 4.09608,1.0909 0.77645,0.5873 2.14805,1.0678 3.04799,1.0678 0.89994,0 1.83852,0.3272 2.08574,0.7272 0.24721,0.4 1.37191,0.7273 2.49932,0.7273 1.12742,0 2.45727,0.4909 2.95522,1.0909 0.49796,0.6 1.84712,1.0909 2.99814,1.0909 1.15103,0 2.09277,0.3075 2.09277,0.6834 0,0.3759 1.22727,0.7849 2.72727,0.9091 l 2.72728,0.2257 v 27.6364 c 0,26.9675 -0.0421,27.7837 -1.74031,33.7263 -2.42321,8.4797 -6.46164,14.3665 -11.66283,17.0009 -4.62671,2.3435 -5.94779,2.4281 -9.89774,0.6339 z m 82.17353,0.2731 c -2.95648,-1.2986 -8.12804,-6.9991 -9.8203,-10.8247 -3.28166,-7.4188 -3.7636,-11.0075 -4.113,-30.6277 -0.41368,-23.2303 -0.48264,-23.0217 6.33337,-19.1551 0.6,0.3404 1.58182,0.8101 2.18182,1.0438 0.6,0.2338 1.74545,0.702 2.54545,1.0406 0.8,0.3386 2.19091,0.8219 3.09091,1.074 0.9,0.2521 1.63637,0.7636 1.63637,1.1366 0,0.3731 0.64459,0.6783 1.43242,0.6783 0.78783,0 2.59779,0.6545 4.02212,1.4545 1.42433,0.8 3.07715,1.4546 3.67294,1.4546 0.59578,0 2.30401,0.7437 3.79606,1.6528 1.49205,0.9091 3.657,2.1335 4.81101,2.7209 4.01346,2.043 4.35446,3.3503 3.85016,14.7595 -0.6369,14.4067 -2.85551,22.1136 -8.267,28.7176 -4.30088,5.2487 -10.08764,7.1077 -15.17233,4.8743 z m -164.45623,-0.1406 c -3.15782,-0.6147 -8.38741,-6.1631 -10.82621,-11.4862 -3.85538,-8.415 -4.06601,-11.3856 -3.81667,-53.8256 l 0.22646,-38.5455 5.7492,-0.2144 c 3.32632,-0.1241 6.06943,0.1058 6.50909,0.5454 0.41794,0.418 3.12967,0.7599 6.02606,0.7599 2.8964,0 5.46844,0.3273 5.71565,0.7273 0.24721,0.4 2.17988,0.7273 4.29482,0.7273 3.96889,0 8.39365,1.6399 8.48366,3.1442 0.0282,0.4707 0.0101,16.7285 -0.0401,36.1285 -0.10037,38.7807 -0.38267,41.9829 -4.46246,50.6178 -3.39284,7.1809 -9.88108,12.2655 -15.09411,11.8286 -0.65,-0.054 -1.89443,-0.2377 -2.7654,-0.4073 z m -664.88748,-17.4419 c -3.06085,-0.1716 -6.03067,-0.7572 -6.8891,-1.3585 -0.8299,-0.5813 -2.25427,-1.0569 -3.16526,-1.0569 -0.911,0 -1.65636,-0.3272 -1.65636,-0.7272 0,-0.4 -0.96251,-0.7273 -2.1389,-0.7273 -1.17639,0 -2.31767,-0.2893 -2.53618,-0.6428 -0.21851,-0.3536 -1.87419,-1.3371 -3.67929,-2.1856 -1.8051,-0.8485 -3.28199,-1.8683 -3.28199,-2.2662 0,-0.398 -0.46421,-0.7236 -1.03157,-0.7236 -1.21944,0 -6.96843,-5.353 -6.96843,-6.4884 0,-0.4314 -0.49091,-0.7843 -1.09091,-0.7843 -0.6,0 -1.09091,-0.3159 -1.09091,-0.702 0,-0.3861 -0.93259,-1.777 -2.07242,-3.0909 -2.24348,-2.5861 -4.76773,-6.9446 -6.22742,-10.7526 -0.23,-0.6 -0.7096,-1.5818 -1.06579,-2.1818 -2.70568,-4.5577 -2.63437,-1.1539 -2.63437,-125.74649 0,-117.70019 0.0321,-120.5055 1.41269,-123.52622 0.77698,-1.7 1.64821,-3.09091 1.93607,-3.09091 0.28786,0 0.74137,-1.29025 1.0078,-2.86722 0.26643,-1.57697 0.94974,-3.25341 1.51847,-3.72541 0.56873,-0.47201 1.03406,-1.35487 1.03406,-1.96193 0,-1.41143 13.57953,-15.27235 15.58239,-15.90529 0.82969,-0.26219 2.49034,-1.20483 3.69034,-2.09475 1.19999,-0.88993 3.16035,-1.8506 4.35635,-2.13484 1.19599,-0.28423 2.38683,-0.86029 2.6463,-1.28013 0.25947,-0.41983 3.42678,-1.13025 7.03846,-1.5787 3.61168,-0.44845 6.81175,-1.06082 7.11127,-1.36082 0.77098,-0.77221 17.58703,-0.68109 18.06848,0.0979 0.21868,0.35385 1.84777,0.86082 3.62019,1.12661 2.57606,0.38631 3.63569,1.02325 5.28167,3.17483 l 2.05909,2.69157 0.18689,152.11999 0.18688,152.12001 -1.82325,2.1668 c -1.00278,1.1917 -1.8258,2.4468 -1.82892,2.7891 -0.0206,2.2621 -12.79335,3.5015 -27.55633,2.674 z m 1168.52424,-0.045 c -1.0707,-0.1513 -2.3381,-0.7465 -2.8163,-1.3227 -0.4783,-0.5763 -1.2386,-1.0587 -1.6896,-1.072 -1.3225,-0.039 -4.0928,-2.6568 -4.0928,-3.8676 0,-0.6123 -0.3272,-1.3155 -0.7272,-1.5627 -0.4811,-0.2973 -0.7273,-51.6067 -0.7273,-151.56755 0,-133.78679 0.1268,-151.37233 1.106,-153.33509 1.3608,-2.72783 2.1543,-3.37794 5.6213,-4.60563 1.5,-0.53116 2.7272,-1.22727 2.7272,-1.54692 0,-0.93527 4.7087,-0.66738 5.7637,0.32792 0.7709,0.72727 1.0303,0.72727 1.2969,0 0.4003,-1.09159 12.6097,-1.28915 14.5857,-0.23601 0.6945,0.37019 3.9807,1.01927 7.3026,1.4424 3.512,0.44734 6.5015,1.23098 7.1429,1.87237 0.6067,0.60668 1.7342,1.10306 2.5056,1.10306 0.7715,0 1.4026,0.2891 1.4026,0.64245 0,0.35335 0.5728,0.85786 1.2728,1.12115 3.509,1.31979 6.835,3.82649 12.3285,9.29145 3.3193,3.30206 6.0351,6.30735 6.0351,6.67842 0,0.37108 0.8182,1.74738 1.8182,3.05845 1,1.31106 1.8182,2.8273 1.8182,3.36941 0,0.54211 0.6787,2.28213 1.5083,3.86671 0.8296,1.58458 1.696,4.84468 1.9252,7.24468 0.2293,2.4 0.7778,4.59727 1.2189,4.88283 1.1482,0.74318 1.1411,228.2845 -0.01,229.7329 -0.4451,0.5613 -1.0006,2.7241 -1.2346,4.8062 -0.234,2.0821 -0.8946,4.5366 -1.468,5.4546 -0.5734,0.9179 -1.2706,2.6507 -1.5493,3.8507 -0.2787,1.2 -1.2995,3.2237 -2.2683,4.497 -0.9689,1.2733 -1.7616,2.645 -1.7616,3.0483 0,0.7575 -9.8716,10.9714 -13.0919,13.5459 -2.0287,1.6219 -9.661,5.4543 -10.8623,5.4543 -0.4252,0 -0.7731,0.3273 -0.7731,0.7273 0,0.4 -1.0636,0.7292 -2.3636,0.7317 -1.3,0 -3.2589,0.4715 -4.353,1.0423 -1.9309,1.0073 -22.7597,2.0064 -27.5938,1.3237 z m -859.50771,-20.9827 c 0,-2.0354 3.30682,-5.8211 14.18182,-16.2356 5.37395,-5.1463 11.53758,-10.2431 12.38728,-10.2431 0.27837,0 2.395,-1.6363 4.70363,-3.6363 2.30863,-2 4.38588,-3.6364 4.61611,-3.6364 0.53562,0 12.00546,-7.7508 13.92934,-9.4129 0.8,-0.6911 2.6,-1.8051 4,-2.4755 1.4,-0.6704 3.85455,-2.0386 5.45455,-3.0404 1.6,-1.0018 3.48182,-2.018 4.18182,-2.2584 0.7,-0.2403 1.27272,-0.6879 1.27272,-0.9946 0,-0.3067 0.57273,-0.7556 1.27273,-0.9976 0.7,-0.242 2.25455,-1.0792 3.45455,-1.8604 1.2,-0.7813 7.41818,-4.0585 13.81818,-7.2827 6.4,-3.2243 12.78181,-6.4858 14.18181,-7.2479 2.71389,-1.4772 11.62845,-5.471 16.36364,-7.3311 0.8,-0.3142 3.74545,-1.6392 6.54545,-2.9444 2.8,-1.3052 5.90909,-2.691 6.90909,-3.0795 1,-0.3885 2.68686,-1.1574 3.74858,-1.7087 1.06172,-0.5512 2.45707,-1.0023 3.10078,-1.0023 0.64371,0 1.82049,-0.3272 2.61506,-0.7272 0.79457,-0.4 2.09478,-1.0546 2.88935,-1.4546 0.79457,-0.4 2.2673,-0.7273 3.27273,-0.7273 1.00543,0 1.82805,-0.3272 1.82805,-0.7272 0,-0.4 0.75563,-0.7273 1.67918,-0.7273 0.92355,0 2.31445,-0.4805 3.09091,-1.0678 0.77645,-0.5873 2.10802,-1.0782 2.95904,-1.0909 0.85102,-0.013 1.95473,-0.514 2.45269,-1.114 0.49795,-0.6 1.8278,-1.0909 2.95522,-1.0909 1.12741,0 2.25211,-0.3273 2.49932,-0.7273 0.24722,-0.4 1.22497,-0.7273 2.17279,-0.7273 0.94783,0 2.21423,-0.4909 2.81423,-1.0909 0.59999,-0.6 1.91315,-1.0909 2.91811,-1.0909 1.00497,0 2.02948,-0.3273 2.27669,-0.7273 0.24721,-0.4 1.5563,-0.7272 2.90909,-0.7272 1.35279,0 2.66188,-0.3273 2.90909,-0.7273 0.24722,-0.4 1.34943,-0.7273 2.44937,-0.7273 1.09995,0 2.63518,-0.4805 3.41163,-1.0678 0.77645,-0.5872 2.45605,-1.0782 3.73244,-1.0909 1.2764,-0.013 2.52298,-0.3504 2.7702,-0.7504 0.24721,-0.4 1.53554,-0.7273 2.86296,-0.7273 1.32741,0 2.8209,-0.4909 3.31886,-1.0909 0.51064,-0.6152 2.09605,-1.0909 3.63636,-1.0909 1.54031,0 3.12572,-0.4756 3.63636,-1.0909 0.55247,-0.6657 2.14635,-1.0909 4.08905,-1.0909 1.75102,0 3.18368,-0.3273 3.18368,-0.7273 0,-0.4 1.40727,-0.7272 3.12727,-0.7272 1.72,0 3.47338,-0.3461 3.8964,-0.7692 0.42302,-0.423 2.61575,-0.9597 4.87273,-1.1926 2.25698,-0.23296 4.1036,-0.70503 4.1036,-1.04907 0,-0.34404 1.94432,-0.62553 4.32071,-0.62553 2.3764,0 4.52298,-0.32727 4.7702,-0.72727 0.24721,-0.4 2.681,-0.72727 5.40841,-0.72727 3.52071,0 5.22152,-0.3164 5.86431,-1.09091 0.6775,-0.81633 2.49383,-1.09091 7.21633,-1.09091 3.59249,0 6.65308,-0.34213 7.10522,-0.79427 0.52622,-0.52622 9.11825,-0.93114 25.45934,-1.19984 22.76294,-0.37429 24.81632,-0.30646 26.62632,0.87949 1.63335,1.07022 2.85093,1.20169 7.28297,0.78637 4.37041,-0.40954 5.49097,-0.29476 6.26846,0.64205 0.70211,0.84599 2.32203,1.14074 6.26931,1.14074 2.92741,0 5.52483,0.32728 5.77205,0.72728 0.24721,0.4 2.3938,0.72727 4.77019,0.72727 2.39563,0 4.32072,0.32403 4.32072,0.72727 0,0.4 1.78068,0.72728 3.95708,0.72728 2.17639,0 4.15934,0.32727 4.40655,0.72727 0.24722,0.39995 1.90289,0.72725 3.67929,0.72725 1.77639,0 3.2298,0.3273 3.2298,0.7273 0,0.4 1.59629,0.7273 3.54732,0.7273 2.26593,0 3.87435,0.394 4.45268,1.0909 0.51553,0.6211 2.10118,1.0909 3.6825,1.0909 1.52741,0 2.97938,0.3273 3.22659,0.7273 0.24722,0.4 1.53555,0.7272 2.86297,0.7272 1.32741,0 2.8209,0.4909 3.31885,1.0909 0.49796,0.6 1.99144,1.0909 3.31886,1.0909 1.32741,0 2.61575,0.3273 2.86296,0.7273 0.24721,0.4 1.5563,0.7273 2.90909,0.7273 1.35279,0 2.66188,0.3273 2.90909,0.7273 0.24721,0.4 1.55631,0.7272 2.90909,0.7272 1.35279,0 2.66188,0.3273 2.90909,0.7273 0.24722,0.4 1.39267,0.7273 2.54546,0.7273 1.15278,0 2.29824,0.3273 2.54545,0.7273 0.24721,0.4 1.22497,0.7272 2.17279,0.7272 0.94782,0 2.21422,0.4909 2.81422,1.0909 0.6,0.6 1.78035,1.0909 2.62299,1.0909 0.84265,0 2.32436,0.5192 3.2927,1.1536 0.96833,0.6345 2.05406,0.9723 2.41272,0.7506 0.35866,-0.2217 1.27305,0.067 2.03198,0.6415 0.75893,0.5744 2.09692,1.0549 2.97332,1.0676 0.87639,0.013 1.7957,0.3504 2.04292,0.7504 0.24721,0.4 1.41198,0.7273 2.58837,0.7273 1.1764,0 2.1389,0.3272 2.1389,0.7272 0,0.4 0.65899,0.7273 1.46441,0.7273 0.80543,0 2.0327,0.2937 2.72728,0.6526 0.69457,0.359 2.73558,1.2163 4.53558,1.9053 4.41562,1.69 6.50217,2.516 9.09091,3.5985 1.2,0.5018 3,1.2465 4,1.6549 1,0.4084 3.56657,1.5997 5.70348,2.6474 2.13692,1.0477 4.18594,1.9049 4.55338,1.9049 1.4531,0 19.77559,8.7549 20.16738,9.6364 0.13333,0.3 0.64459,0.5455 1.13612,0.5455 0.79869,0 5.54661,1.9957 8.43964,3.5475 3.3635,1.8042 10.67161,5.915 16.72727,9.4092 3.8,2.1926 7.55351,4.347 8.34113,4.7876 0.78762,0.4406 3.14638,2.0284 5.24167,3.5284 2.0953,1.5 4.02522,2.7273 4.28871,2.7273 0.26349,0 2.03949,1.1454 3.94667,2.5454 1.90718,1.4 3.75103,2.5564 4.09744,2.5698 0.34641,0.013 2.24569,1.4861 4.22062,3.2727 1.97491,1.7866 3.83341,3.2484 4.12991,3.2484 0.2965,0 0.9715,0.4247 1.5001,0.9437 0.5286,0.519 2.4337,1.9568 4.2337,3.1951 1.8,1.2383 4.2546,3.2945 5.4546,4.5693 1.2,1.2748 2.9632,3.0279 3.9183,3.8958 6.7588,6.1416 11.7181,11.8675 11.7181,13.5294 0,1.1871 -2.0079,0.9224 -3.0623,-0.4037 -2.2976,-2.8899 -13.8862,-14.0932 -14.5779,-14.0932 -0.4224,0 -1.7807,-0.7553 -3.0185,-1.6785 -1.2377,-0.9232 -3.3959,-2.2488 -4.7959,-2.9457 -1.4,-0.697 -4.01817,-2.2273 -5.81817,-3.4007 -1.8,-1.1733 -3.76364,-2.332 -4.36364,-2.5747 -0.6,-0.2428 -1.74545,-0.6975 -2.54545,-1.0106 -0.8,-0.3131 -3.09091,-1.3087 -5.09091,-2.2126 -2,-0.9039 -4.61818,-2.0666 -5.81818,-2.5837 -1.2,-0.5172 -3.40909,-1.4708 -4.90909,-2.1192 -1.5,-0.6484 -2.72727,-1.4908 -2.72727,-1.8721 0,-0.3812 -0.65899,-0.6931 -1.46442,-0.6931 -0.80543,0 -2.0327,-0.2891 -2.72727,-0.6424 -0.69457,-0.3534 -2.24468,-1.0382 -3.44468,-1.5219 -1.2,-0.4836 -3.10834,-1.34 -4.24075,-1.903 -1.13242,-0.563 -2.69141,-1.0236 -3.46442,-1.0236 -0.77301,0 -2.05558,-0.3273 -2.85015,-0.7273 -0.79457,-0.4 -2.09478,-1.0546 -2.88935,-1.4546 -0.79458,-0.4 -2.10811,-0.7272 -2.91896,-0.7272 -1.4776,0 -1.9258,-0.1691 -6.42258,-2.4224 -1.33241,-0.6677 -3.01052,-1.214 -3.72913,-1.214 -0.7186,0 -1.71397,-0.4909 -2.21193,-1.0909 -0.49795,-0.6 -1.8278,-1.0909 -2.95522,-1.0909 -1.12741,0 -2.25211,-0.3273 -2.49932,-0.7273 -0.24722,-0.4 -1.39267,-0.7273 -2.54546,-0.7273 -1.15278,0 -2.29824,-0.3272 -2.54545,-0.7272 -0.24722,-0.4 -1.39267,-0.7273 -2.54546,-0.7273 -1.15278,0 -2.27589,-0.2911 -2.49579,-0.6469 -0.2199,-0.3558 -1.46649,-0.8312 -2.77019,-1.0564 -5.85081,-1.0107 -7.55416,-1.4696 -8.89584,-2.3965 -0.789,-0.5451 -2.32423,-0.9911 -3.41162,-0.9911 -1.08739,0 -2.17934,-0.3273 -2.42656,-0.7273 -0.24721,-0.4 -1.37191,-0.7273 -2.49932,-0.7273 -1.12742,0 -2.45727,-0.4909 -2.95522,-1.0909 -0.51553,-0.6211 -2.10118,-1.0909 -3.68249,-1.0909 -1.52742,0 -2.97939,-0.3272 -3.2266,-0.7272 -0.24722,-0.4 -1.55631,-0.7273 -2.90909,-0.7273 -1.35279,0 -2.66188,-0.3273 -2.90909,-0.7273 -0.24722,-0.4 -1.88358,-0.7273 -3.63637,-0.7273 -1.75278,0 -3.36778,-0.2927 -3.58888,-0.6504 -0.2211,-0.3578 -1.71314,-0.8487 -3.31565,-1.0909 -1.60251,-0.2423 -4.30456,-0.6449 -6.00456,-0.8948 -1.7,-0.2498 -3.73645,-0.9044 -4.52546,-1.4545 -0.789,-0.5502 -2.81514,-1.0003 -4.50253,-1.0003 -1.68739,0 -3.27025,-0.3272 -3.51746,-0.7272 -0.24721,-0.4 -1.82107,-0.7377 -3.49747,-0.7504 -1.67639,-0.013 -3.68326,-0.5037 -4.45972,-1.091 -0.78116,-0.5908 -2.95469,-1.0677 -4.86616,-1.0677 -1.89995,0 -3.65671,-0.3273 -3.90392,-0.7273 -0.24722,-0.4 -2.04722,-0.7273 -4,-0.7273 -1.95279,0 -3.75279,-0.3273 -4,-0.7273 -0.24722,-0.4 -2.53812,-0.7272 -5.09091,-0.7272 -2.55279,0 -4.8437,-0.3273 -5.09091,-0.7273 -0.24721,-0.4 -2.70176,-0.7273 -5.45455,-0.7273 -2.75278,0 -5.20733,-0.3272 -5.45454,-0.7272 -0.24721,-0.4 -2.97553,-0.7273 -6.06292,-0.7273 -4.02541,0 -6.09512,-0.3374 -7.31613,-1.1926 -1.39653,-0.9782 -2.91513,-1.1203 -8.44558,-0.7904 -5.14954,0.3073 -7.23191,0.1486 -8.8124,-0.6713 -1.78104,-0.9241 -6.72781,-1.0008 -35.48823,-0.5508 -25.66344,0.4016 -33.85136,0.7488 -35.28309,1.4959 -1.19902,0.6257 -4.5094,0.9745 -9.276,0.9774 -4.15145,0 -7.60933,0.3244 -7.8611,0.7318 -0.24721,0.4 -3.14653,0.7273 -6.44292,0.7273 -3.29639,0 -6.32755,0.3341 -6.73592,0.7424 -0.40836,0.4084 -2.9389,0.9476 -5.62342,1.1983 -2.68453,0.2507 -5.05336,0.7347 -5.26409,1.0757 -0.21072,0.341 -2.49108,0.6199 -5.06748,0.6199 -2.63805,0 -4.68435,0.3177 -4.68435,0.7273 0,0.4 -1.75993,0.7273 -3.91095,0.7273 -2.58916,0 -4.21694,0.3687 -4.81632,1.0909 -0.55964,0.6743 -2.19056,1.0997 -4.27087,1.114 -1.85102,0.013 -4.00077,0.5036 -4.77722,1.0909 -0.77646,0.5873 -2.63896,1.0678 -4.1389,1.0678 -1.49994,0 -2.92943,0.3273 -3.17665,0.7273 -0.24721,0.4 -1.84034,0.7272 -3.54028,0.7272 -1.69994,0 -3.72608,0.4805 -4.50253,1.0678 -0.77645,0.5873 -2.61969,1.0782 -4.09608,1.0909 -1.4764,0.013 -2.88662,0.3504 -3.13383,0.7504 -0.24722,0.4 -1.71994,0.7273 -3.27273,0.7273 -1.55279,0 -3.02551,0.3273 -3.27273,0.7273 -0.24721,0.4 -1.65743,0.7377 -3.13383,0.7504 -1.47639,0.013 -3.31963,0.5036 -4.09608,1.0909 -0.77645,0.5873 -2.47532,1.0678 -3.77526,1.0678 -1.29994,0 -2.56579,0.3272 -2.81301,0.7272 -0.24721,0.4 -1.51016,0.7273 -2.80656,0.7273 -1.29639,0 -2.70979,0.3527 -3.14088,0.7838 -0.4311,0.4311 -1.88746,1.0569 -3.23637,1.3907 -2.91032,0.7201 -7.04288,2.1345 -8.80632,3.0139 -0.69457,0.3464 -1.81679,0.6298 -2.49382,0.6298 -1.58589,0 -5.8514,1.3163 -8.48408,2.6182 -1.13241,0.56 -2.83128,1.0182 -3.77526,1.0182 -0.94397,0 -1.91858,0.3272 -2.1658,0.7272 -0.24721,0.4 -1.25278,0.7273 -2.23461,0.7273 -0.98182,0 -2.35341,0.2873 -3.04798,0.6385 -3.30387,1.6704 -6.89398,2.9979 -8.10758,2.9979 -0.73745,0 -1.74823,0.4909 -2.24619,1.0909 -0.49796,0.6 -1.50053,1.0909 -2.22795,1.0909 -0.72741,0 -1.52484,0.3273 -1.77205,0.7273 -0.24721,0.4 -1.37191,0.7272 -2.49933,0.7272 -1.12741,0 -2.45726,0.4909 -2.95522,1.0909 -0.49795,0.6 -1.50053,1.091 -2.22794,1.091 -0.72742,0 -1.52484,0.3272 -1.77206,0.7272 -0.24721,0.4 -1.39266,0.7273 -2.54545,0.7273 -1.15279,0 -2.29824,0.3273 -2.54545,0.7273 -0.24722,0.4 -0.9982,0.7272 -1.66885,0.7272 -0.67065,0 -2.86043,0.7893 -4.86617,1.754 -2.00574,0.9646 -4.13771,1.95 -4.73771,2.1898 -0.6,0.2397 -2.07273,1.0629 -3.27273,1.8293 -1.2,0.7663 -2.71447,1.4173 -3.36549,1.4465 -0.65102,0.029 -1.5911,0.5441 -2.08905,1.1441 -0.49796,0.6 -1.68349,1.0909 -2.63451,1.0909 -0.95102,0 -1.72913,0.3273 -1.72913,0.7273 0,0.4 -0.65454,0.7272 -1.45454,0.7272 -0.8,0 -1.45455,0.3273 -1.45455,0.7273 0,0.4 -0.52844,0.7273 -1.17431,0.7273 -1.31303,0 -7.48325,3.1409 -10.82569,5.5107 -1.2,0.8508 -2.67273,1.7612 -3.27273,2.023 -0.6,0.2619 -2.4,1.2978 -4,2.302 -1.6,1.0042 -3.56363,2.1083 -4.36363,2.4537 -1.39168,0.6007 -12.09265,10.9636 -15.39952,14.9129 -1.78791,2.1353 -3.14594,2.4508 -3.14594,0.7309 z m 16.37703,-42.6605 c -0.25631,-2.5 -0.18223,-35.9636 0.16462,-74.36362 l 0.63064,-69.81818 1.98256,-5.72094 c 3.18667,-9.19554 7.80838,-14.81986 13.6052,-16.55662 8.33179,-2.49627 17.03562,6.26528 19.96337,20.09574 0.90193,4.26065 1.07638,14.7407 1.06964,64.26062 -0.005,38.5222 -0.26498,59.6498 -0.74433,60.5455 -0.40495,0.7566 -1.15861,1.3757 -1.67482,1.3757 -0.5162,0 -1.63213,0.7364 -2.47985,1.6364 -0.84771,0.9 -2.78658,2.2827 -4.30859,3.0726 -1.52201,0.79 -4.11008,2.5082 -5.75128,3.8182 -1.6412,1.31 -3.27756,2.3823 -3.63636,2.3829 -0.35881,5e-4 -2.1251,1.3406 -3.9251,2.9779 -1.8,1.6373 -4.99675,4.1052 -7.10389,5.4842 -2.10714,1.379 -4.23131,3.148 -4.72039,3.9312 -1.61551,2.5868 -2.58744,1.599 -3.07142,-3.1216 z m 522.74342,-11.806 c -1.64343,-1.4067 -3.23241,-2.5576 -3.53107,-2.5576 -0.29866,0 -1.71936,-0.9 -3.15712,-2 -1.43776,-1.1 -3.82098,-2.6546 -5.29604,-3.4546 -1.47507,-0.8 -3.4529,-2.1299 -4.39517,-2.9554 -0.94228,-0.8255 -2.18995,-1.7186 -2.77261,-1.9846 -0.58265,-0.266 -2.36846,-1.2989 -3.96846,-2.2951 -1.6,-0.9963 -4.32431,-2.4952 -6.05403,-3.3309 l -3.14493,-1.5195 0.28757,-52.86635 c 0.28301,-52.02801 0.31306,-52.95109 1.89537,-58.2134 2.72058,-9.04793 5.79875,-14.14069 10.37895,-17.17172 4.10728,-2.71807 7.85436,-3.08074 11.84923,-1.14686 4.03997,1.95571 6.55976,4.84372 9.27944,10.63546 3.92193,8.35191 4.24613,12.27581 4.13133,50.00329 -0.1638,53.85008 -0.8747,90.87038 -1.7505,91.16128 -0.4201,0.1395 -2.10853,-0.8972 -3.75196,-2.304 z m -440.59862,-35.3231 c -0.6587,-1.0658 0.3569,-40.03944 1.18804,-45.59121 0.97103,-6.48613 4.00106,-14.13469 6.97676,-17.61113 10.74397,-12.55191 25.24093,-4.07438 28.54936,16.69509 0.80611,5.06056 1.05742,29.66185 0.32256,31.57685 -0.24279,0.6327 -1.23488,1.1504 -2.20464,1.1504 -0.96976,0 -1.95158,0.4909 -2.18182,1.0909 -0.23024,0.6 -1.18247,1.0909 -2.11607,1.0909 -0.9336,0 -1.89972,0.3273 -2.14693,0.7273 -0.24722,0.4 -1.22903,0.7273 -2.18182,0.7273 -0.95279,0 -1.91366,0.2934 -2.13527,0.6519 -0.57156,0.9248 -6.06737,3.7117 -7.31955,3.7117 -0.57551,0 -2.21175,0.6546 -3.63609,1.4546 -1.42433,0.8 -3.23429,1.4545 -4.02212,1.4545 -0.78783,0 -1.43242,0.3273 -1.43242,0.7273 0,0.4 -0.82846,0.7273 -1.84101,0.7273 -1.01255,0 -2.02939,0.4909 -2.25963,1.0909 -0.47959,1.2498 -2.85389,1.4668 -3.55935,0.3254 z m 359.29633,-8.6891 c -0.24721,-0.4 -1.38471,-0.7272 -2.52777,-0.7272 -1.14306,0 -2.18738,-0.2455 -2.32071,-0.5455 -0.42657,-0.9598 -4.77841,-3.0909 -6.31172,-3.0909 -0.81467,0 -1.68349,-0.3273 -1.93071,-0.7273 -0.24721,-0.4 -1.04463,-0.7273 -1.77205,-0.7273 -0.72741,0 -1.72999,-0.4909 -2.22795,-1.0909 -0.49795,-0.6 -1.66416,-1.0909 -2.59158,-1.0909 -0.92741,0 -1.88847,-0.3272 -2.13569,-0.7272 -0.24721,-0.4 -1.41198,-0.7273 -2.58837,-0.7273 -1.1764,0 -2.1389,-0.3273 -2.1389,-0.7273 0,-0.4 -1.02756,-0.7273 -2.28346,-0.7273 -1.32182,0 -2.69033,-0.5359 -3.2496,-1.2727 -1.38889,-1.82962 -1.32826,-20.69141 0.0932,-28.99563 2.31191,-13.50623 9.61471,-22.81314 17.9059,-22.81982 7.09677,-0.006 13.80457,7.4546 16.61346,18.47725 1.29689,5.08929 1.46595,8.08767 1.46595,26 v 20.2473 h -1.77526 c -0.97639,0 -1.97752,-0.3273 -2.22474,-0.7273 z M 641.93946,990.72722 c -0.18049,-0.3 -0.42292,-28.2 -0.53872,-62 -0.19747,-57.63146 -0.12921,-61.68076 1.09717,-65.0909 2.88894,-8.03316 7.40989,-14.70515 11.34206,-16.73856 2.72064,-1.40689 10.04352,-1.38906 12.89089,0.0314 2.71182,1.35283 7.10956,6.09835 7.82606,8.44494 0.2883,0.94422 0.9384,2.20767 1.44468,2.80767 0.50627,0.6 1.65003,4.2 2.54168,8 1.42852,6.08798 1.54742,7.81664 1.00041,14.54546 -0.34143,4.2 -0.6239,28.46447 -0.62771,53.92104 -0.008,53.21941 0.51102,49.35168 -6.62218,49.35168 -2.11439,0 -4.04662,0.32727 -4.29383,0.72727 -0.24722,0.4 -1.71588,0.72727 -3.26371,0.72727 -1.54782,0 -3.30513,0.49091 -3.90513,1.09091 -0.61517,0.61518 -2.39214,1.09091 -4.07477,1.09091 -1.98142,0 -3.1245,0.3665 -3.40248,1.09091 -0.2583,0.6731 -1.36371,1.09091 -2.88627,1.09091 -1.3572,0 -2.46764,0.32727 -2.46764,0.72727 0,0.83702 -5.56586,1.00399 -6.06051,0.18182 z m 193.34056,-3.80632 c -0.25125,-0.40652 -1.87016,-0.73913 -3.59757,-0.73913 -1.90455,0 -3.49711,-0.42939 -4.04613,-1.09091 -0.55246,-0.66568 -2.14635,-1.09091 -4.08905,-1.09091 -1.75102,0 -3.18368,-0.32727 -3.18368,-0.72727 0,-0.40324 -1.92508,-0.72728 -4.32071,-0.72728 -2.37639,0 -4.52298,-0.32727 -4.7702,-0.72727 -0.24721,-0.4 -2.34307,-0.72727 -4.65747,-0.72727 -7.49828,0 -6.92152,5.09591 -6.31764,-55.81899 0.56345,-56.83627 0.74533,-59.61043 4.43669,-67.67344 3.90221,-8.52354 8.76408,-12.6754 14.84302,-12.6754 7.93658,0 14.23043,7.26926 17.14681,19.8042 1.13177,4.86447 1.26002,9.78174 1.18552,45.45454 -0.094,45.01461 -0.75001,76.59895 -1.60191,77.12545 -0.31398,0.19405 -0.77644,0.0202 -1.02768,-0.38632 z M 725.42444,974.04781 c -1.1252,-1.12521 -0.67621,-196.10674 0.47688,-207.09231 1.40988,-13.43196 6.55363,-23.12263 13.90339,-26.19355 3.50509,-1.46453 6.06483,-1.40069 9.67988,0.2414 3.67366,1.66871 6.50274,4.97346 9.23017,10.78207 4.36707,9.30057 4.28172,6.57943 3.73089,118.95149 -0.35407,72.23278 -0.73444,102.56292 -1.29193,103.01729 -1.28448,1.04687 -34.7014,1.32148 -35.72928,0.29361 z"
       id="path1" />
  </g>
</svg>
